:FULLY-SPECIFIED
:FORCE-ALL-JOINTS-BE-3DOF
:DEGREES
2344
root 1.43421 14.3095 -18.4395 925.848 -51.997 162.176
lfemur -6.25834 -8.9953 5.1849
ltibia 25.0115 0 0
lfoot -7.96336 22.5189 0
ltoes -46.3925 0 0
rfemur -68.4264 -11.6763 10.6903
rtibia 78.2461 0 0
rfoot -12.8392 -13.9926 0
rtoes 3.04585 0 0
lowerback 20.413 3.67512 -3.72237
upperback 0.454803 3.7212 -0.990755
thorax -11.1533 1.84981 -0.0656913
lowerneck -5.34028 -2.80304 -4.84829
upperneck 1.79378 -3.43803 0.349423
head 1.56975 -1.75865 0.827448
lclavicle -2.0597e-14 -2.39119e-14 0
lhumerus -39.0315 -17.2776 85.0798
lradius 102.477 0 0
lwrist 59.0708 0 0
lhand -21.0088 400.332 0
lfingers 7.12502 0 0
lthumb 5.36591 -649.755 0
rclavicle -2.0597e-14 -2.39119e-14 0
rhumerus 50.8667 9.80116 -45.8337
rradius 44.5002 0 0
rwrist 6.58338 0 0
rhand -7.01513 -399.086 0
rfingers 7.12502 0 0
rthumb 18.8564 291.806 0
2345
root 1.53886 14.3681 -18.6382 927.16 -52.1914 160.856
lfemur -6.58665 -8.83688 5.1194
ltibia 25.2142 0 0
lfoot -8.00741 22.4358 0
ltoes -46.1299 0 0
rfemur -68.3331 -11.5729 10.6899
rtibia 78.2217 0 0
rfoot -12.892 -13.9369 0
rtoes 2.97461 0 0
lowerback 20.4072 3.64706 -3.69998
upperback 0.448956 3.69468 -0.965728
thorax -11.1556 1.83725 -0.0428873
lowerneck -5.33413 -2.77098 -4.83005
upperneck 1.82717 -3.39614 0.334407
head 1.58375 -1.7387 0.821642
lclavicle -1.92658e-14 -2.34506e-14 0
lhumerus -38.7056 -17.496 85.0614
lradius 102.528 0 0
lwrist 59.0449 0 0
lhand -20.9847 400.331 0
lfingers 7.12502 0 0
lthumb 5.38911 -649.757 0
rclavicle -1.92658e-14 -2.34506e-14 0
rhumerus 50.6693 9.8928 -45.81
rradius 44.6656 0 0
rwrist 6.52689 0 0
rhand -7.01811 -399.118 0
rfingers 7.12502 0 0
rthumb 18.8535 291.774 0
2346
root 1.64351 14.4266 -18.837 928.974 -52.3891 159.008
lfemur -6.99539 -8.57249 4.99096
ltibia 25.5423 0 0
lfoot -8.117 22.359 0
ltoes -45.7624 0 0
rfemur -68.2122 -11.4569 10.7023
rtibia 78.1913 0 0
rfoot -12.9531 -13.8041 0
rtoes 2.87058 0 0
lowerback 20.3874 3.6033 -3.67888
upperback 0.438971 3.65072 -0.927053
thorax -11.1545 1.81714 0.00117903
lowerneck -5.31616 -2.74338 -4.81896
upperneck 1.87782 -3.36106 0.3322
head 1.60593 -1.7224 0.821481
lclavicle -1.68047e-14 -2.27445e-14 0
lhumerus -38.314 -17.8132 85.0922
lradius 102.584 0 0
lwrist 59.0278 0 0
lhand -20.9387 400.346 0
lfingers 7.12502 0 0
lthumb 5.43357 -649.743 0
rclavicle -1.68047e-14 -2.27445e-14 0
rhumerus 50.389 9.99265 -45.7883
rradius 44.8711 0 0
rwrist 6.46949 0 0
rhand -7.04207 -399.162 0
rfingers 7.12502 0 0
rthumb 18.8304 291.729 0
2347
root 1.74816 14.4852 -19.0358 932.063 -52.818 155.893
lfemur -7.74983 -8.18157 4.82169
ltibia 26.0383 0 0
lfoot -8.24013 22.1787 0
ltoes -45.1428 0 0
rfemur -67.9959 -11.2244 10.7066
rtibia 78.1351 0 0
rfoot -13.0726 -13.6506 0
rtoes 2.70075 0 0
lowerback 20.3689 3.53528 -3.63014
upperback 0.424451 3.58541 -0.866535
thorax -11.1582 1.78649 0.0598529
lowerneck -5.29789 -2.67464 -4.7817
upperneck 1.95818 -3.27163 0.304289
head 1.64 -1.67997 0.810965
lclavicle -1.34242e-14 -2.16318e-14 0
lhumerus -37.5707 -18.3333 85.0715
lradius 102.698 0 0
lwrist 58.9744 0 0
lhand -20.877 400.349 0
lfingers 7.12502 0 0
lthumb 5.49311 -649.742 0
rclavicle -1.34242e-14 -2.16318e-14 0
rhumerus 49.9217 10.1975 -45.7369
rradius 45.251 0 0
rwrist 6.34485 0 0
rhand -7.05703 -399.237 0
rfingers 7.12502 0 0
rthumb 18.8158 291.655 0
